<svg id="mermaid-1790849807026" width="100%" xmlns="http://www.w3.org/2000/svg" xmlns:xlink="http://www.w3.org/1999/xlink" class="flowchart" style="max-width: 774.4921875px;" viewBox="4 4 774.4921875 368" role="graphics-document document" aria-roledescription="flowchart-v2"><style>#mermaid-1790849807026{font-family:"trebuchet ms",verdana,arial,sans-serif;font-size:16px;fill:#ccc;}@keyframes edge-animation-frame{from{stroke-dashoffset:0;}}@keyframes dash{to{stroke-dashoffset:0;}}#mermaid-1790849807026 .edge-animation-slow{stroke-dasharray:9,5!important;stroke-dashoffset:900;animation:dash 50s linear infinite;stroke-linecap:round;}#mermaid-1790849807026 .edge-animation-fast{stroke-dasharray:9,5!important;stroke-dashoffset:900;animation:dash 20s linear infinite;stroke-linecap:round;}#mermaid-1790849807026 .error-icon{fill:#a44141;}#mermaid-1790849807026 .error-text{fill:#ddd;stroke:#ddd;}#mermaid-1790849807026 .edge-thickness-normal{stroke-width:1px;}#mermaid-1790849807026 .edge-thickness-thick{stroke-width:3.5px;}#mermaid-1790849807026 .edge-pattern-solid{stroke-dasharray:0;}#mermaid-1790849807026 .edge-thickness-invisible{stroke-width:0;fill:none;}#mermaid-1790849807026 .edge-pattern-dashed{stroke-dasharray:3;}#mermaid-1790849807026 .edge-pattern-dotted{stroke-dasharray:2;}#mermaid-1790849807026 .marker{fill:lightgrey;stroke:lightgrey;}#mermaid-1790849807026 .marker.cross{stroke:lightgrey;}#mermaid-1790849807026 svg{font-family:"trebuchet ms",verdana,arial,sans-serif;font-size:16px;}#mermaid-1790849807026 p{margin:0;}#mermaid-1790849807026 .label{font-family:"trebuchet ms",verdana,arial,sans-serif;color:#ccc;}#mermaid-1790849807026 .cluster-label text{fill:#F9FFFE;}#mermaid-1790849807026 .cluster-label span{color:#F9FFFE;}#mermaid-1790849807026 .cluster-label span p{background-color:transparent;}#mermaid-1790849807026 .label text,#mermaid-1790849807026 span{fill:#ccc;color:#ccc;}#mermaid-1790849807026 .node rect,#mermaid-1790849807026 .node circle,#mermaid-1790849807026 .node ellipse,#mermaid-1790849807026 .node polygon,#mermaid-1790849807026 .node path{fill:#1f2020;stroke:#ccc;stroke-width:1px;}#mermaid-1790849807026 .rough-node .label text,#mermaid-1790849807026 .node .label text,#mermaid-1790849807026 .image-shape .label,#mermaid-1790849807026 .icon-shape .label{text-anchor:middle;}#mermaid-1790849807026 .node .katex path{fill:#000;stroke:#000;stroke-width:1px;}#mermaid-1790849807026 .rough-node .label,#mermaid-1790849807026 .node .label,#mermaid-1790849807026 .image-shape .label,#mermaid-1790849807026 .icon-shape .label{text-align:center;}#mermaid-1790849807026 .node.clickable{cursor:pointer;}#mermaid-1790849807026 .root .anchor path{fill:lightgrey!important;stroke-width:0;stroke:lightgrey;}#mermaid-1790849807026 .arrowheadPath{fill:lightgrey;}#mermaid-1790849807026 .edgePaths .path{stroke:lightgrey;stroke-width:1px;}#mermaid-1790849807026 .flowchart-link{stroke:lightgrey;fill:none;}#mermaid-1790849807026 .edgeLabel{background-color:#1e293b;text-align:center;}#mermaid-1790849807026 .edgeLabel p{background-color:#1e293b;}#mermaid-1790849807026 .edgeLabel rect{opacity:0.5;background-color:#1e293b;fill:#1e293b;}#mermaid-1790849807026 .labelBkg{background-color:rgba(30, 41, 59, 0.5);}#mermaid-1790849807026 .cluster rect{fill:hsl(180, 1.5873015873%, 28.3529411765%);stroke:rgba(255, 255, 255, 0.25);stroke-width:1px;}#mermaid-1790849807026 .cluster text{fill:#F9FFFE;}#mermaid-1790849807026 .cluster span{color:#F9FFFE;}#mermaid-1790849807026 .node .collapsed-indicator{fill:rgba(255, 255, 255, 0.25);stroke:none;opacity:0.6;}#mermaid-1790849807026 .node .collapsed-separator{stroke:rgba(255, 255, 255, 0.25);stroke-width:0.75px;}#mermaid-1790849807026 div.mermaidTooltip{position:absolute;text-align:center;max-width:200px;padding:2px;font-family:"trebuchet ms",verdana,arial,sans-serif;font-size:12px;background:hsl(20, 1.5873015873%, 12.3529411765%);border:1px solid rgba(255, 255, 255, 0.25);border-radius:2px;pointer-events:none;z-index:100;}#mermaid-1790849807026 .flowchartTitleText{text-anchor:middle;font-size:18px;fill:#ccc;}#mermaid-1790849807026 rect.text{fill:none;stroke-width:0;}#mermaid-1790849807026 .icon-shape,#mermaid-1790849807026 .image-shape{background-color:#1e293b;text-align:center;}#mermaid-1790849807026 .icon-shape p,#mermaid-1790849807026 .image-shape p{background-color:#1e293b;padding:2px;}#mermaid-1790849807026 .icon-shape .label rect,#mermaid-1790849807026 .image-shape .label rect{opacity:0.5;background-color:#1e293b;fill:#1e293b;}#mermaid-1790849807026 .label-icon{display:inline-block;height:1em;overflow:visible;vertical-align:-0.125em;}#mermaid-1790849807026 .node .label-icon path{fill:currentColor;stroke:revert;stroke-width:revert;}#mermaid-1790849807026 .node .neo-node{stroke:#ccc;}#mermaid-1790849807026 [data-look="neo"].node rect,#mermaid-1790849807026 [data-look="neo"].cluster rect,#mermaid-1790849807026 [data-look="neo"].node polygon{stroke:url(#mermaid-1790849807026-gradient);filter:drop-shadow( 1px 2px 2px rgba(185,185,185,1));}#mermaid-1790849807026 [data-look="neo"].swimlane.cluster rect{filter:none;}#mermaid-1790849807026 [data-look="neo"].node path{stroke:url(#mermaid-1790849807026-gradient);stroke-width:1px;}#mermaid-1790849807026 [data-look="neo"].node .outer-path{filter:drop-shadow( 1px 2px 2px rgba(185,185,185,1));}#mermaid-1790849807026 [data-look="neo"].node .neo-line path{stroke:#ccc;filter:none;}#mermaid-1790849807026 [data-look="neo"].node circle{stroke:url(#mermaid-1790849807026-gradient);filter:drop-shadow( 1px 2px 2px rgba(185,185,185,1));}#mermaid-1790849807026 [data-look="neo"].node circle .state-start{fill:#000000;}#mermaid-1790849807026 [data-look="neo"].icon-shape .icon{fill:url(#mermaid-1790849807026-gradient);filter:drop-shadow( 1px 2px 2px rgba(185,185,185,1));}#mermaid-1790849807026 [data-look="neo"].icon-shape .icon-neo path{stroke:url(#mermaid-1790849807026-gradient);filter:drop-shadow( 1px 2px 2px rgba(185,185,185,1));}#mermaid-1790849807026 :root{--mermaid-font-family:"trebuchet ms",verdana,arial,sans-serif;}#mermaid-1790849807026 .startEnd&gt;*{fill:rgb(76, 175, 80)!important;stroke:rgb(46, 125, 50)!important;stroke-width:2px!important;color:white!important;font-weight:bold!important;rx:20px!important;ry:20px!important;}#mermaid-1790849807026 .startEnd span{fill:rgb(76, 175, 80)!important;stroke:rgb(46, 125, 50)!important;stroke-width:2px!important;color:white!important;font-weight:bold!important;rx:20px!important;ry:20px!important;}#mermaid-1790849807026 .startEnd tspan{fill:white!important;}#mermaid-1790849807026 .idleState&gt;*{fill:rgb(33, 150, 243)!important;stroke:rgb(21, 101, 192)!important;stroke-width:2px!important;color:white!important;font-weight:bold!important;rx:8px!important;ry:8px!important;}#mermaid-1790849807026 .idleState span{fill:rgb(33, 150, 243)!important;stroke:rgb(21, 101, 192)!important;stroke-width:2px!important;color:white!important;font-weight:bold!important;rx:8px!important;ry:8px!important;}#mermaid-1790849807026 .idleState tspan{fill:white!important;}#mermaid-1790849807026 .activeState&gt;*{fill:rgb(255, 152, 0)!important;stroke:rgb(230, 81, 0)!important;stroke-width:2px!important;color:white!important;font-weight:bold!important;rx:8px!important;ry:8px!important;}#mermaid-1790849807026 .activeState span{fill:rgb(255, 152, 0)!important;stroke:rgb(230, 81, 0)!important;stroke-width:2px!important;color:white!important;font-weight:bold!important;rx:8px!important;ry:8px!important;}#mermaid-1790849807026 .activeState tspan{fill:white!important;}</style><g><marker id="mermaid-1790849807026_flowchart-v2-pointEnd" class="marker flowchart-v2" viewBox="0 0 10 10" refX="5" refY="5" markerUnits="userSpaceOnUse" markerWidth="8" markerHeight="8" orient="auto"><path d="M 0 0 L 10 5 L 0 10 z" class="arrowMarkerPath" style="stroke-width: 1; stroke-dasharray: 1, 0;"></path></marker><marker id="mermaid-1790849807026_flowchart-v2-pointStart" class="marker flowchart-v2" viewBox="0 0 10 10" refX="4.5" refY="5" markerUnits="userSpaceOnUse" markerWidth="8" markerHeight="8" orient="auto"><path d="M 0 5 L 10 10 L 10 0 z" class="arrowMarkerPath" style="stroke-width: 1; stroke-dasharray: 1, 0;"></path></marker><marker id="mermaid-1790849807026_flowchart-v2-pointEnd-margin" class="marker flowchart-v2" viewBox="0 0 11.5 14" refX="11.5" refY="7" markerUnits="userSpaceOnUse" markerWidth="10.5" markerHeight="14" orient="auto"><path d="M 0 0 L 11.5 7 L 0 14 z" class="arrowMarkerPath" style="stroke-width: 0; stroke-dasharray: 1, 0;"></path></marker><marker id="mermaid-1790849807026_flowchart-v2-pointStart-margin" class="marker flowchart-v2" viewBox="0 0 11.5 14" refX="1" refY="7" markerUnits="userSpaceOnUse" markerWidth="11.5" markerHeight="14" orient="auto"><polygon points="0,7 11.5,14 11.5,0" class="arrowMarkerPath" style="stroke-width: 0; stroke-dasharray: 1, 0;"></polygon></marker><marker id="mermaid-1790849807026_flowchart-v2-circleEnd" class="marker flowchart-v2" viewBox="0 0 10 10" refX="11" refY="5" markerUnits="userSpaceOnUse" markerWidth="11" markerHeight="11" orient="auto"><circle cx="5" cy="5" r="5" class="arrowMarkerPath" style="stroke-width: 1; stroke-dasharray: 1, 0;"></circle></marker><marker id="mermaid-1790849807026_flowchart-v2-circleStart" class="marker flowchart-v2" viewBox="0 0 10 10" refX="-1" refY="5" markerUnits="userSpaceOnUse" markerWidth="11" markerHeight="11" orient="auto"><circle cx="5" cy="5" r="5" class="arrowMarkerPath" style="stroke-width: 1; stroke-dasharray: 1, 0;"></circle></marker><marker id="mermaid-1790849807026_flowchart-v2-circleEnd-margin" class="marker flowchart-v2" viewBox="0 0 10 10" refY="5" refX="12.25" markerUnits="userSpaceOnUse" markerWidth="14" markerHeight="14" orient="auto"><circle cx="5" cy="5" r="5" class="arrowMarkerPath" style="stroke-width: 0; stroke-dasharray: 1, 0;"></circle></marker><marker id="mermaid-1790849807026_flowchart-v2-circleStart-margin" class="marker flowchart-v2" viewBox="0 0 10 10" refX="-2" refY="5" markerUnits="userSpaceOnUse" markerWidth="14" markerHeight="14" orient="auto"><circle cx="5" cy="5" r="5" class="arrowMarkerPath" style="stroke-width: 0; stroke-dasharray: 1, 0;"></circle></marker><marker id="mermaid-1790849807026_flowchart-v2-crossEnd" class="marker cross flowchart-v2" viewBox="0 0 11 11" refX="12" refY="5.2" markerUnits="userSpaceOnUse" markerWidth="11" markerHeight="11" orient="auto"><path d="M 1,1 l 9,9 M 10,1 l -9,9" class="arrowMarkerPath" style="stroke-width: 2; stroke-dasharray: 1, 0;"></path></marker><marker id="mermaid-1790849807026_flowchart-v2-crossStart" class="marker cross flowchart-v2" viewBox="0 0 11 11" refX="-1" refY="5.2" markerUnits="userSpaceOnUse" markerWidth="11" markerHeight="11" orient="auto"><path d="M 1,1 l 9,9 M 10,1 l -9,9" class="arrowMarkerPath" style="stroke-width: 2; stroke-dasharray: 1, 0;"></path></marker><marker id="mermaid-1790849807026_flowchart-v2-crossEnd-margin" class="marker cross flowchart-v2" viewBox="0 0 15 15" refX="17.7" refY="7.5" markerUnits="userSpaceOnUse" markerWidth="12" markerHeight="12" orient="auto"><path d="M 1,1 L 14,14 M 1,14 L 14,1" class="arrowMarkerPath" style="stroke-width: 2.5;"></path></marker><marker id="mermaid-1790849807026_flowchart-v2-crossStart-margin" class="marker cross flowchart-v2" viewBox="0 0 15 15" refX="-3.5" refY="7.5" markerUnits="userSpaceOnUse" markerWidth="12" markerHeight="12" orient="auto"><path d="M 1,1 L 14,14 M 1,14 L 14,1" class="arrowMarkerPath" style="stroke-width: 2.5; stroke-dasharray: 1, 0;"></path></marker><g class="root"><g class="clusters"></g><g class="edges edgePaths"><path d="M337.703125,60L337.703125,96" id="mermaid-1790849807026-L_START_IDLE_0" class="edge-thickness-normal edge-pattern-solid edge-thickness-normal edge-pattern-solid flowchart-link" style="stroke-dasharray: 0 0 32 4; stroke-dashoffset: 0;stroke:#38bdf8;stroke-width:2px;fill:none;;;stroke:#38bdf8;stroke-width:2px;fill:none" data-edge="true" data-et="edge" data-id="L_START_IDLE_0" data-points="W3sieCI6MzM3LjcwMzEyNSwieSI6NjB9LHsieCI6MzM3LjcwMzEyNSwieSI6MTAwfV0=" data-look="neo" marker-end="url(#mermaid-1790849807026_flowchart-v2-pointEnd-margin__38bdf8)"></path><path d="M290.5602678571429,148L290.5602678571429,160.92893218813452Q290.5602678571429,168 283.4892000452774,168L75.57106781186548,168Q68.5,168 68.5,175.07106781186548L68.5,288.9289321881345Q68.5,296 75.57106781186548,296L93.66330718813452,296Q100.734375,296 100.734375,303.0710678118655L100.734375,312" id="mermaid-1790849807026-L_IDLE_ARB_REFRESH_0" class="edge-thickness-normal edge-pattern-solid edge-thickness-normal edge-pattern-solid flowchart-link" style="stroke-dasharray: 0 0 403.6380615234375 4; stroke-dashoffset: 0;stroke:#f97316;stroke-width:2px;stroke-dasharray: 5 5;fill:none;;;stroke:#f97316;stroke-width:2px;stroke-dasharray: 5 5;fill:none" data-edge="true" data-et="edge" data-id="L_IDLE_ARB_REFRESH_0" data-points="W3sieCI6MjkwLjU2MDI2Nzg1NzE0MjksInkiOjE0OH0seyJ4IjoyOTAuNTYwMjY3ODU3MTQyOSwieSI6MTY4fSx7IngiOjY4LjUsInkiOjE2OH0seyJ4Ijo2OC41LCJ5IjoyOTZ9LHsieCI6MTAwLjczNDM3NSwieSI6Mjk2fSx7IngiOjEwMC43MzQzNzUsInkiOjMxNn1d" data-look="neo" marker-end="url(#mermaid-1790849807026_flowchart-v2-pointEnd-margin__f97316)"></path><path d="M144.734375,316L144.734375,303.0710678118655Q144.734375,296 151.80544281186548,296L169.89768218813452,296Q176.96875,296 176.96875,288.9289321881345L176.96875,195.07106781186548Q176.96875,188 184.03981781186548,188L302.34634290242025,188Q309.4174107142857,188 309.4174107142857,180.92893218813452L309.4174107142857,152" id="mermaid-1790849807026-L_ARB_REFRESH_IDLE_0" class="edge-thickness-normal edge-pattern-solid edge-thickness-normal edge-pattern-solid flowchart-link" style="stroke-dasharray: 0 0 314.0264587402344 4; stroke-dashoffset: 0;stroke:#38bdf8;stroke-width:2px;fill:none;;;stroke:#38bdf8;stroke-width:2px;fill:none" data-edge="true" data-et="edge" data-id="L_ARB_REFRESH_IDLE_0" data-points="W3sieCI6MTQ0LjczNDM3NSwieSI6MzE2fSx7IngiOjE0NC43MzQzNzUsInkiOjI5Nn0seyJ4IjoxNzYuOTY4NzUsInkiOjI5Nn0seyJ4IjoxNzYuOTY4NzUsInkiOjE4OH0seyJ4IjozMDkuNDE3NDEwNzE0Mjg1NywieSI6MTg4fSx7IngiOjMwOS40MTc0MTA3MTQyODU3LCJ5IjoxNDh9XQ==" data-look="neo" marker-end="url(#mermaid-1790849807026_flowchart-v2-pointEnd-margin__38bdf8)"></path><path d="M328.27455357142856,148L328.27455357142856,200.92893218813452Q328.27455357142856,208 321.2034857595631,208L285.8679428118655,208Q278.796875,208 278.796875,215.07106781186548L278.796875,288.9289321881345Q278.796875,296 285.8679428118655,296L308.6320571881345,296Q315.703125,296 315.703125,303.0710678118655L315.703125,312" id="mermaid-1790849807026-L_IDLE_ARB_READ_0" class="edge-thickness-normal edge-pattern-solid edge-thickness-normal edge-pattern-solid flowchart-link" style="stroke-dasharray: 0 0 235.72738647460938 4; stroke-dashoffset: 0;stroke:#f97316;stroke-width:2px;stroke-dasharray: 5 5;fill:none;;;stroke:#f97316;stroke-width:2px;stroke-dasharray: 5 5;fill:none" data-edge="true" data-et="edge" data-id="L_IDLE_ARB_READ_0" data-points="W3sieCI6MzI4LjI3NDU1MzU3MTQyODU2LCJ5IjoxNDh9LHsieCI6MzI4LjI3NDU1MzU3MTQyODU2LCJ5IjoyMDh9LHsieCI6Mjc4Ljc5Njg3NSwieSI6MjA4fSx7IngiOjI3OC43OTY4NzUsInkiOjI5Nn0seyJ4IjozMTUuNzAzMTI1LCJ5IjoyOTZ9LHsieCI6MzE1LjcwMzEyNSwieSI6MzE2fV0=" data-look="neo" marker-end="url(#mermaid-1790849807026_flowchart-v2-pointEnd-margin__f97316)"></path><path d="M359.703125,316L359.703125,303.0710678118655Q359.703125,296 366.7741928118655,296L389.5383071881345,296Q396.609375,296 396.609375,288.9289321881345L396.609375,215.07106781186548Q396.609375,208 389.5383071881345,208L354.2027642404369,208Q347.13169642857144,208 347.13169642857144,200.92893218813452L347.13169642857144,152" id="mermaid-1790849807026-L_ARB_READ_IDLE_0" class="edge-thickness-normal edge-pattern-solid edge-thickness-normal edge-pattern-solid flowchart-link" style="stroke-dasharray: 0 0 235.72738647460938 4; stroke-dashoffset: 0;stroke:#38bdf8;stroke-width:2px;fill:none;;;stroke:#38bdf8;stroke-width:2px;fill:none" data-edge="true" data-et="edge" data-id="L_ARB_READ_IDLE_0" data-points="W3sieCI6MzU5LjcwMzEyNSwieSI6MzE2fSx7IngiOjM1OS43MDMxMjUsInkiOjI5Nn0seyJ4IjozOTYuNjA5Mzc1LCJ5IjoyOTZ9LHsieCI6Mzk2LjYwOTM3NSwieSI6MjA4fSx7IngiOjM0Ny4xMzE2OTY0Mjg1NzE0NCwieSI6MjA4fSx7IngiOjM0Ny4xMzE2OTY0Mjg1NzE0NCwieSI6MTQ4fV0=" data-look="neo" marker-end="url(#mermaid-1790849807026_flowchart-v2-pointEnd-margin__38bdf8)"></path><path d="M365.9888392857143,148L365.9888392857143,180.92893218813452Q365.9888392857143,188 373.05990709757975,188L559.2492446881345,188Q566.3203125,188 566.3203125,195.07106781186548L566.3203125,288.9289321881345Q566.3203125,296 573.3913803118655,296L611.9133071881345,296Q618.984375,296 618.984375,303.0710678118655L618.984375,312" id="mermaid-1790849807026-L_IDLE_ARB_WRITE_0" class="edge-thickness-normal edge-pattern-solid edge-thickness-normal edge-pattern-solid flowchart-link" style="stroke-dasharray: 0 0 402.3389892578125 4; stroke-dashoffset: 0;stroke:#f97316;stroke-width:2px;stroke-dasharray: 5 5;fill:none;;;stroke:#f97316;stroke-width:2px;stroke-dasharray: 5 5;fill:none" data-edge="true" data-et="edge" data-id="L_IDLE_ARB_WRITE_0" data-points="W3sieCI6MzY1Ljk4ODgzOTI4NTcxNDMsInkiOjE0OH0seyJ4IjozNjUuOTg4ODM5Mjg1NzE0MywieSI6MTg4fSx7IngiOjU2Ni4zMjAzMTI1LCJ5IjoxODh9LHsieCI6NTY2LjMyMDMxMjUsInkiOjI5Nn0seyJ4Ijo2MTguOTg0Mzc1LCJ5IjoyOTZ9LHsieCI6NjE4Ljk4NDM3NSwieSI6MzE2fV0=" data-look="neo" marker-end="url(#mermaid-1790849807026_flowchart-v2-pointEnd-margin__f97316)"></path><path d="M662.984375,316L662.984375,303.0710678118655Q662.984375,296 670.0554428118655,296L708.5773696881345,296Q715.6484375,296 715.6484375,288.9289321881345L715.6484375,175.07106781186548Q715.6484375,168 708.5773696881345,168L391.91704995472264,168Q384.84598214285717,168 384.84598214285717,160.92893218813452L384.84598214285717,152" id="mermaid-1790849807026-L_ARB_WRITE_IDLE_0" class="edge-thickness-normal edge-pattern-solid edge-thickness-normal edge-pattern-solid flowchart-link" style="stroke-dasharray: 0 0 532.8099365234375 4; stroke-dashoffset: 0;stroke:#f97316;stroke-width:2px;stroke-dasharray: 5 5;fill:none;;;stroke:#f97316;stroke-width:2px;stroke-dasharray: 5 5;fill:none" data-edge="true" data-et="edge" data-id="L_ARB_WRITE_IDLE_0" data-points="W3sieCI6NjYyLjk4NDM3NSwieSI6MzE2fSx7IngiOjY2Mi45ODQzNzUsInkiOjI5Nn0seyJ4Ijo3MTUuNjQ4NDM3NSwieSI6Mjk2fSx7IngiOjcxNS42NDg0Mzc1LCJ5IjoxNjh9LHsieCI6Mzg0Ljg0NTk4MjE0Mjg1NzE3LCJ5IjoxNjh9LHsieCI6Mzg0Ljg0NTk4MjE0Mjg1NzE3LCJ5IjoxNDh9XQ==" data-look="neo" marker-end="url(#mermaid-1790849807026_flowchart-v2-pointEnd-margin__f97316)"></path><path d="M564.984375,336L548.984375,336Q544.984375,336 544.984375,340L544.984375,340Q544.984375,344 548.984375,344L560.984375,344" id="mermaid-1790849807026-L_ARB_WRITE_ARB_WRITE_0" class="edge-thickness-normal edge-pattern-solid edge-thickness-normal edge-pattern-solid flowchart-link" style="stroke-dasharray: 0 0 36.985877990722656 4; stroke-dashoffset: 0;stroke:#f97316;stroke-width:2px;stroke-dasharray: 5 5;fill:none;;;stroke:#f97316;stroke-width:2px;stroke-dasharray: 5 5;fill:none" data-edge="true" data-et="edge" data-id="L_ARB_WRITE_ARB_WRITE_0" data-points="W3sieCI6NTY0Ljk4NDM3NSwieSI6MzM2fSx7IngiOjU0NC45ODQzNzUsInkiOjMzNn0seyJ4Ijo1NDQuOTg0Mzc1LCJ5IjozNDR9LHsieCI6NTY0Ljk4NDM3NSwieSI6MzQ0fV0=" data-look="neo" marker-end="url(#mermaid-1790849807026_flowchart-v2-pointEnd-margin__f97316)"></path></g><g class="edgeLabels"><g class="edgeLabel" transform="translate(68.484375, 252)"><g class="label" data-id="L_IDLE_ARB_REFRESH_0" transform="translate(-56.484375, -24)"><foreignObject width="112.96875" height="48"><div xmlns="http://www.w3.org/1999/xhtml" class="labelBkg" style="display: table-cell; white-space: nowrap; line-height: 1.5; max-width: 200px; text-align: center;"><span class="edgeLabel"><p>Cờ báo<br>refresh_req bật</p></span></div></foreignObject></g></g><g class="edgeLabel" transform="translate(176.6328125, 252)"><g class="label" data-id="L_ARB_REFRESH_IDLE_0" transform="translate(-31.6640625, -24)"><foreignObject width="63.328125" height="48"><div xmlns="http://www.w3.org/1999/xhtml" class="labelBkg" style="display: table-cell; white-space: nowrap; line-height: 1.5; max-width: 200px; text-align: center;"><span class="edgeLabel"><p>Hoàn tất<br>Refresh</p></span></div></foreignObject></g></g><g class="edgeLabel" transform="translate(278.703125, 252)"><g class="label" data-id="L_IDLE_ARB_READ_0" transform="translate(-50.40625, -24)"><foreignObject width="100.8125" height="48"><div xmlns="http://www.w3.org/1999/xhtml" class="labelBkg" style="display: table-cell; white-space: nowrap; line-height: 1.5; max-width: 200px; text-align: center;"><span class="edgeLabel"><p>Cờ báo<br>vsync_req bật</p></span></div></foreignObject></g></g><g class="edgeLabel" transform="translate(396.453125, 252)"><g class="label" data-id="L_ARB_READ_IDLE_0" transform="translate(-47.34375, -12)"><foreignObject width="94.6875" height="24"><div xmlns="http://www.w3.org/1999/xhtml" class="labelBkg" style="display: table-cell; white-space: nowrap; line-height: 1.5; max-width: 200px; text-align: center;"><span class="edgeLabel"><p>Hoàn tất đọc</p></span></div></foreignObject></g></g><g class="edgeLabel" transform="translate(566.234375, 252)"><g class="label" data-id="L_IDLE_ARB_WRITE_0" transform="translate(-74.4140625, -24)"><foreignObject width="148.828125" height="48"><div xmlns="http://www.w3.org/1999/xhtml" class="labelBkg" style="display: table-cell; white-space: nowrap; line-height: 1.5; max-width: 200px; text-align: center;"><span class="edgeLabel"><p>Cờ báo w_fifo_count<br>đạt 256</p></span></div></foreignObject></g></g><g class="edgeLabel" transform="translate(715.5703125, 252)"><g class="label" data-id="L_ARB_WRITE_IDLE_0" transform="translate(-54.921875, -24)"><foreignObject width="109.84375" height="48"><div xmlns="http://www.w3.org/1999/xhtml" class="labelBkg" style="display: table-cell; white-space: nowrap; line-height: 1.5; max-width: 200px; text-align: center;"><span class="edgeLabel"><p>Cờ báo<br>sys_wr_ack bật</p></span></div></foreignObject></g></g><g class="edgeLabel" transform="translate(497.34375, 340)"><g class="label" data-id="L_ARB_WRITE_ARB_WRITE_0" transform="translate(-43.640625, -24)"><foreignObject width="87.28125" height="48"><div xmlns="http://www.w3.org/1999/xhtml" class="labelBkg" style="display: table-cell; white-space: nowrap; line-height: 1.5; max-width: 200px; text-align: center;"><span class="edgeLabel"><p>Đang truyền<br>dữ liệu</p></span></div></foreignObject></g></g></g><g class="nodes"><g class="node default startEnd" id="mermaid-1790849807026-flowchart-START-0" data-look="neo" transform="translate(337.703125, 36)"><g class="basic label-container outer-path"><path d="M-62 -24 C-30.978629790322657 -24, 0.04274041935468631 -24, 62 -24 C62 -24, 62 -24, 62 -24 C62.5951284655815 -23.980915388456086, 63.190256931163 -23.961830776912173, 63.53768527953711 -23.950689426008072 C64.12062349359822 -23.894454077583372, 64.70356170765932 -23.838218729158672, 65.06905188042813 -23.80296033175791 C65.57671837174647 -23.720884750454, 66.0843848630648 -23.638809169150093, 66.58780708883293 -23.55741976778557 C67.12164060337231 -23.4355757516812, 67.6554741179117 -23.313731735576823, 68.08771001382817 -23.215076712936707 C68.52429809899135 -23.0854996609579, 68.96088618415452 -22.955922608979094, 69.5625972325669 -22.777337928256046 C70.01127051428841 -22.61222201309218, 70.45994379600994 -22.44710609792831, 71.00640811710498 -22.246002176304522 C71.51672817504965 -22.02009862475908, 72.02704823299432 -21.79419507321364, 72.4132097388214 -21.62325282965806 C72.72179884214053 -21.462262092117225, 73.03038794545965 -21.30127135457639, 73.7772212480945 -20.91164889896135 C74.07865453045936 -20.72891827177318, 74.38008781282421 -20.54618764458501, 75.09283762905316 -20.114114517404175 C75.37348804534113 -19.918344936162402, 75.65413846162909 -19.722575354920632, 76.35465273178919 -19.23392692483096 C76.8210738751735 -18.861968474969867, 77.2874950185578 -18.490010025108774, 77.55748148738692 -18.27470300085923 C77.89696756568968 -17.966390726854073, 78.23645364399245 -17.65807845284892, 78.69638121448367 -17.240384402345462 C79.00280131254891 -16.923980493535183, 79.30922141061416 -16.607576584724903, 79.76667192980757 -16.135221366271608 C80.15701918433068 -15.676697269720766, 80.54736643885379 -15.218173173169921, 80.76395557923271 -14.963755244609606 C81.00516932717295 -14.6405507973942, 81.24638307511319 -14.317346350178795, 81.68413411032694 -13.730799842932077 C81.9648760741533 -13.299504796721948, 82.24561803797964 -12.868209750511818, 82.52342631212831 -12.441421639452603 C82.78213927807502 -11.982050570885649, 83.04085224402174 -11.522679502318697, 83.278383352952 -11.100918965780046 C83.48550119076778 -10.670834343943781, 83.69261902858356 -10.240749722107518, 83.9459029523795 -9.714800234937456 C84.11854890565938 -9.288361392453695, 84.29119485893928 -8.861922549969933, 84.52324212919424 -8.288761306111395 C84.63921819938624 -7.939459860970494, 84.75519426957824 -7.590158415829593, 85.00802847287986 -6.828662079144785 C85.13738853894108 -6.335356082246053, 85.2667486050023 -5.84205008534732, 85.39826989236377 -5.340502414951548 C85.4777941982009 -4.932161911945907, 85.55731850403801 -4.523821408940267, 85.6923628019468 -3.8303974808011105 C85.7599483728217 -3.3062171393760043, 85.82753394369658 -2.782036797950898, 85.88909871078076 -2.3045526217843664 C85.92664280995936 -1.7197729720261399, 85.96418690913798 -1.1349933222679136, 85.98766918881651 -0.769237861719724 C85.98766918881651 -0.2441990634922847, 85.98766918881651 0.28083973473515456, 85.98766918881651 0.7692378617197182 C85.94967138878415 1.3610842684958206, 85.9116735887518 1.9529306752719229, 85.88909871078076 2.3045526217843504 C85.82232967747983 2.8224000590293663, 85.75556064417891 3.3402474962743827, 85.6923628019468 3.8303974808010937 C85.58335610832717 4.390123813965093, 85.47434941470753 4.949850147129091, 85.39826989236377 5.340502414951542 C85.27339417766963 5.816707636557424, 85.14851846297547 6.292912858163305, 85.00802847287986 6.828662079144769 C84.87241793776367 7.237099404310191, 84.73680740264747 7.645536729475614, 84.52324212919424 8.288761306111379 C84.30382495667249 8.830725964382554, 84.08440778415074 9.372690622653726, 83.9459029523795 9.714800234937451 C83.76029287736623 10.10022352712191, 83.57468280235295 10.48564681930637, 83.278383352952 11.100918965780041 C83.01120133961214 11.57532768557756, 82.7440193262723 12.04973640537508, 82.52342631212831 12.4414216394526 C82.35035107296787 12.707311684012163, 82.17727583380744 12.973201728571727, 81.68413411032694 13.730799842932065 C81.4463820587933 14.049365932329655, 81.20863000725967 14.367932021727247, 80.76395557923271 14.963755244609601 C80.44439332845883 15.339131247975791, 80.12483107768496 15.714507251341983, 79.76667192980759 16.135221366271594 C79.54468707635027 16.36443895276168, 79.32270222289296 16.593656539251768, 78.69638121448368 17.240384402345455 C78.43447940727596 17.478236694109416, 78.17257760006824 17.716088985873377, 77.55748148738694 18.274703000859212 C77.18595185260067 18.570987997782463, 76.8144222178144 18.867272994705715, 76.35465273178919 19.233926924830957 C75.96068413523388 19.508742363162273, 75.56671553867855 19.783557801493586, 75.09283762905318 20.11411451740417 C74.77956463608777 20.30402244673625, 74.46629164312236 20.493930376068338, 73.7772212480945 20.911648898961346 C73.28797043329467 21.16689073566231, 72.79871961849486 21.422132572363275, 72.4132097388214 21.623252829658057 C72.04046218870377 21.78825711293192, 71.66771463858615 21.95326139620578, 71.006408117105 22.24600217630452 C70.71464761753462 22.35337273715091, 70.42288711796425 22.4607432979973, 69.56259723256692 22.777337928256042 C69.17701587345523 22.891776451682535, 68.79143451434355 23.006214975109028, 68.0877100138282 23.2150767129367 C67.4960814705423 23.35011206720466, 66.90445292725639 23.485147421472618, 66.58780708883295 23.557419767785568 C66.10070969691034 23.636169896614923, 65.61361230498775 23.714920025444275, 65.06905188042816 23.802960331757905 C64.49987911009178 23.85786774438185, 63.9307063397554 23.912775157005793, 63.53768527953711 23.950689426008072 C63.012449151202766 23.96753272633365, 62.48721302286842 23.98437602665923, 62.00000000000001 24 C62.00000000000001 24, 62 24, 62 24 C33.7532580397784 24, 5.506516079556803 24, -61.99999999999999 24 C-62.568703723783464 23.98176277849291, -63.137407447566936 23.96352555698582, -63.5376852795371 23.950689426008072 C-63.97317435150582 23.908678318987487, -64.40866342347454 23.866667211966902, -65.06905188042815 23.802960331757905 C-65.57337574747262 23.721425160024154, -66.07769961451712 23.639889988290406, -66.58780708883293 23.557419767785568 C-67.11013183981699 23.438202551860996, -67.63245659080104 23.31898533593643, -68.08771001382817 23.215076712936707 C-68.39757864747584 23.12310932900373, -68.7074472811235 23.031141945070754, -69.56259723256689 22.777337928256053 C-70.13092821058478 22.568186874751493, -70.6992591886027 22.359035821246934, -71.00640811710498 22.246002176304522 C-71.49778465722002 22.028484358162764, -71.98916119733506 21.810966540021006, -72.4132097388214 21.623252829658064 C-72.81090140954376 21.41577733977587, -73.20859308026614 21.208301849893683, -73.77722124809449 20.911648898961353 C-74.14417083282875 20.689201904260322, -74.51112041756302 20.46675490955929, -75.09283762905315 20.114114517404186 C-75.35292932693218 19.932685808151906, -75.61302102481122 19.75125709889963, -76.35465273178917 19.23392692483096 C-76.80661301781159 18.873500623896412, -77.258573303834 18.513074322961863, -77.55748148738692 18.274703000859233 C-77.84729074663343 18.011505899544368, -78.13710000587993 17.7483087982295, -78.69638121448367 17.240384402345473 C-79.07530441520971 16.84911508742247, -79.45422761593578 16.457845772499468, -79.76667192980757 16.1352213662716 C-80.13147507201226 15.706702837551129, -80.49627821421697 15.278184308830658, -80.76395557923271 14.963755244609608 C-80.9709778956175 14.686364200775019, -81.17800021200227 14.40897315694043, -81.68413411032694 13.730799842932079 C-81.94504219697778 13.32997495820529, -82.20595028362861 12.929150073478501, -82.5234263121283 12.441421639452614 C-82.67895182141358 12.165270349051069, -82.83447733069885 11.889119058649522, -83.278383352952 11.10091896578005 C-83.44095479592886 10.763335885966967, -83.60352623890572 10.425752806153882, -83.9459029523795 9.71480023493746 C-84.12951047389465 9.261286106985077, -84.31311799540981 8.807771979032694, -84.52324212919424 8.288761306111397 C-84.65616484941839 7.8884192511556614, -84.78908756964253 7.488077196199926, -85.00802847287986 6.828662079144779 C-85.10862345271494 6.4450498228935835, -85.20921843255002 6.061437566642388, -85.39826989236377 5.340502414951551 C-85.46815647066823 4.981649605891717, -85.53804304897268 4.622796796831883, -85.6923628019468 3.830397480801113 C-85.762094189284 3.2895746106337533, -85.83182557662118 2.7487517404663935, -85.88909871078076 2.30455262178438 C-85.91358070801726 1.9232257533132193, -85.93806270525378 1.5418988848420585, -85.98766918881651 0.769237861719727 C-85.98766918881651 0.21170474066652434, -85.98766918881651 -0.3458283803866783, -85.98766918881651 -0.7692378617197153 C-85.95055691324373 -1.347291510255442, -85.91344463767095 -1.9253451587911685, -85.88909871078076 -2.3045526217843473 C-85.84678723881403 -2.6327120430131274, -85.80447576684729 -2.9608714642419076, -85.6923628019468 -3.8303974808011017 C-85.5871201416794 -4.370796298230028, -85.48187748141203 -4.911195115658954, -85.39826989236377 -5.3405024149515405 C-85.2687704965743 -5.8343397364899365, -85.13927110078484 -6.3281770580283325, -85.00802847287986 -6.828662079144767 C-84.85464429908531 -7.29063077216468, -84.70126012529074 -7.752599465184593, -84.52324212919426 -8.288761306111367 C-84.36884408977868 -8.670127448550867, -84.2144460503631 -9.051493590990365, -83.9459029523795 -9.714800234937448 C-83.78659410468217 -10.04560846584425, -83.62728525698483 -10.376416696751052, -83.278383352952 -11.10091896578004 C-83.02360567584499 -11.553302530520893, -82.76882799873799 -12.005686095261748, -82.52342631212831 -12.441421639452606 C-82.26045901697837 -12.845410021408908, -81.99749172182844 -13.249398403365209, -81.68413411032694 -13.730799842932072 C-81.39353272776602 -14.12017922123312, -81.1029313452051 -14.509558599534166, -80.76395557923271 -14.963755244609601 C-80.53694662008232 -15.230412885203362, -80.30993766093192 -15.497070525797122, -79.76667192980759 -16.135221366271594 C-79.48335115598339 -16.42777332631321, -79.20003038215918 -16.720325286354825, -78.6963812144837 -17.240384402345448 C-78.2612388465574 -17.63556918765996, -77.8260964786311 -18.03075397297447, -77.55748148738694 -18.274703000859212 C-77.11793988558962 -18.625225731599322, -76.67839828379229 -18.975748462339432, -76.35465273178919 -19.233926924830953 C-75.88227037741309 -19.56344040614118, -75.409888023037 -19.892953887451405, -75.09283762905318 -20.11411451740417 C-74.63823351361017 -20.38969820373604, -74.18362939816716 -20.665281890067913, -73.7772212480945 -20.911648898961342 C-73.39436610480085 -21.111384181987216, -73.01151096150721 -21.31111946501309, -72.4132097388214 -21.623252829658057 C-71.92659772918992 -21.838661531489517, -71.43998571955844 -22.054070233320978, -71.006408117105 -22.246002176304515 C-70.49841255761237 -22.43294923805728, -69.99041699811974 -22.61989629981004, -69.56259723256692 -22.777337928256042 C-69.02824918525891 -22.93592962384692, -68.4939011379509 -23.0945213194378, -68.0877100138282 -23.2150767129367 C-67.59428150556015 -23.32769855002695, -67.1008529972921 -23.4403203871172, -66.58780708883295 -23.557419767785564 C-66.08048339101981 -23.639439928893957, -65.57315969320669 -23.72146009000235, -65.06905188042816 -23.802960331757905 C-64.5210912228831 -23.855821437372168, -63.97313056533805 -23.90868254298643, -63.53768527953711 -23.950689426008072 C-63.17210597937986 -23.962412842607176, -62.80652667922261 -23.97413625920628, -62.00000000000001 -24 C-62.00000000000001 -24, -62.00000000000001 -24, -62 -24" stroke="none" stroke-width="0" fill="#4CAF50" style="fill:#4CAF50 !important;stroke:#2E7D32 !important;stroke-width:2px !important;rx:20px !important;ry:20px !important"></path><path d="M-62 -24 C-34.39764205381746 -24, -6.795284107634913 -24, 62 -24 M-62 -24 C-35.27523798603036 -24, -8.550475972060731 -24, 62 -24 M62 -24 C62 -24, 62 -24, 62 -24 M62 -24 C62 -24, 62 -24, 62 -24 M62 -24 C62.48224882713839 -23.98453521875407, 62.96449765427679 -23.96907043750814, 63.53768527953711 -23.950689426008072 M62 -24 C62.5247949311538 -23.983170848009262, 63.04958986230759 -23.966341696018528, 63.53768527953711 -23.950689426008072 M63.53768527953711 -23.950689426008072 C63.90648163632771 -23.915112085010996, 64.27527799311831 -23.879534744013917, 65.06905188042813 -23.80296033175791 M63.53768527953711 -23.950689426008072 C64.09720690221108 -23.896713047991916, 64.65672852488507 -23.84273666997576, 65.06905188042813 -23.80296033175791 M65.06905188042813 -23.80296033175791 C65.64631998222187 -23.70963210184089, 66.22358808401559 -23.616303871923872, 66.58780708883293 -23.55741976778557 M65.06905188042813 -23.80296033175791 C65.4662436332102 -23.738745449436152, 65.86343538599225 -23.6745305671144, 66.58780708883293 -23.55741976778557 M66.58780708883293 -23.55741976778557 C67.097973788335 -23.440977547773066, 67.60814048783705 -23.324535327760557, 68.08771001382817 -23.215076712936707 M66.58780708883293 -23.55741976778557 C66.89471209895798 -23.48737070196689, 67.20161710908302 -23.417321636148202, 68.08771001382817 -23.215076712936707 M68.08771001382817 -23.215076712936707 C68.39444071952465 -23.12404064954832, 68.70117142522113 -23.033004586159933, 69.5625972325669 -22.777337928256046 M68.08771001382817 -23.215076712936707 C68.62415097370322 -23.055863851881853, 69.16059193357827 -22.896650990826995, 69.5625972325669 -22.777337928256046 M69.5625972325669 -22.777337928256046 C69.91619927122211 -22.647209109369513, 70.26980130987732 -22.517080290482983, 71.00640811710498 -22.246002176304522 M69.5625972325669 -22.777337928256046 C70.03538392937392 -22.603348053438744, 70.50817062618094 -22.429358178621445, 71.00640811710498 -22.246002176304522 M71.00640811710498 -22.246002176304522 C71.42043893501683 -22.062723015002785, 71.83446975292868 -21.879443853701048, 72.4132097388214 -21.62325282965806 M71.00640811710498 -22.246002176304522 C71.4658648814848 -22.04261429601424, 71.92532164586463 -21.839226415723957, 72.4132097388214 -21.62325282965806 M72.4132097388214 -21.62325282965806 C72.84449673659746 -21.39825067917079, 73.27578373437353 -21.173248528683523, 73.7772212480945 -20.91164889896135 M72.4132097388214 -21.62325282965806 C72.74293990637311 -21.451232812448584, 73.07267007392481 -21.27921279523911, 73.7772212480945 -20.91164889896135 M73.7772212480945 -20.91164889896135 C74.09464625298638 -20.71922399559951, 74.41207125787825 -20.526799092237667, 75.09283762905316 -20.114114517404175 M73.7772212480945 -20.91164889896135 C74.2065529733503 -20.651385484078016, 74.63588469860609 -20.391122069194687, 75.09283762905316 -20.114114517404175 M75.09283762905316 -20.114114517404175 C75.5697830456603 -19.78141804141336, 76.04672846226744 -19.44872156542254, 76.35465273178919 -19.23392692483096 M75.09283762905316 -20.114114517404175 C75.35967764724882 -19.927978472029107, 75.62651766544445 -19.741842426654042, 76.35465273178919 -19.23392692483096 M76.35465273178919 -19.23392692483096 C76.60858371990125 -19.031423719198976, 76.86251470801332 -18.828920513566988, 77.55748148738692 -18.27470300085923 M76.35465273178919 -19.23392692483096 C76.64831347033355 -18.999740300482284, 76.9419742088779 -18.765553676133607, 77.55748148738692 -18.27470300085923 M77.55748148738692 -18.27470300085923 C77.85909839976682 -18.00078250138199, 78.16071531214672 -17.726862001904756, 78.69638121448367 -17.240384402345462 M77.55748148738692 -18.27470300085923 C77.95640185401449 -17.912414078742586, 78.35532222064205 -17.550125156625942, 78.69638121448367 -17.240384402345462 M78.69638121448367 -17.240384402345462 C79.10774770771779 -16.815614724264027, 79.51911420095193 -16.39084504618259, 79.76667192980757 -16.135221366271608 M78.69638121448367 -17.240384402345462 C79.11993798589626 -16.803027261204306, 79.54349475730886 -16.36567012006315, 79.76667192980757 -16.135221366271608 M79.76667192980757 -16.135221366271608 C80.10762376916185 -15.734719935056814, 80.44857560851612 -15.33421850384202, 80.76395557923271 -14.963755244609606 M79.76667192980757 -16.135221366271608 C80.14094946707516 -15.695573674001915, 80.51522700434273 -15.255925981732222, 80.76395557923271 -14.963755244609606 M80.76395557923271 -14.963755244609606 C80.9852011865909 -14.667306286639107, 81.2064467939491 -14.370857328668608, 81.68413411032694 -13.730799842932077 M80.76395557923271 -14.963755244609606 C81.02045434104431 -14.62007027129998, 81.27695310285591 -14.276385297990354, 81.68413411032694 -13.730799842932077 M81.68413411032694 -13.730799842932077 C81.87862088840495 -13.432015924791864, 82.07310766648297 -13.133232006651651, 82.52342631212831 -12.441421639452603 M81.68413411032694 -13.730799842932077 C81.983562726435 -13.270797080748512, 82.28299134254306 -12.810794318564946, 82.52342631212831 -12.441421639452603 M82.52342631212831 -12.441421639452603 C82.76886625668385 -12.00561816440482, 83.0143062012394 -11.56981468935704, 83.278383352952 -11.100918965780046 M82.52342631212831 -12.441421639452603 C82.72763261420316 -12.078832671988351, 82.93183891627802 -11.716243704524102, 83.278383352952 -11.100918965780046 M83.278383352952 -11.100918965780046 C83.51767391441642 -10.604026994901393, 83.75696447588082 -10.10713502402274, 83.9459029523795 -9.714800234937456 M83.278383352952 -11.100918965780046 C83.52968895604914 -10.57907750387032, 83.78099455914628 -10.057236041960591, 83.9459029523795 -9.714800234937456 M83.9459029523795 -9.714800234937456 C84.08913767341157 -9.361007704733302, 84.23237239444364 -9.007215174529145, 84.52324212919424 -8.288761306111395 M83.9459029523795 -9.714800234937456 C84.13550165268299 -9.246487779546339, 84.32510035298648 -8.778175324155221, 84.52324212919424 -8.288761306111395 M84.52324212919424 -8.288761306111395 C84.6736788665521 -7.835669822028604, 84.82411560390996 -7.382578337945812, 85.00802847287986 -6.828662079144785 M84.52324212919424 -8.288761306111395 C84.62877730950636 -7.970906157758782, 84.73431248981849 -7.65305100940617, 85.00802847287986 -6.828662079144785 M85.00802847287986 -6.828662079144785 C85.12717693777189 -6.374297343240143, 85.24632540266391 -5.919932607335501, 85.39826989236377 -5.340502414951548 M85.00802847287986 -6.828662079144785 C85.08770040176242 -6.524838484283173, 85.16737233064498 -6.22101488942156, 85.39826989236377 -5.340502414951548 M85.39826989236377 -5.340502414951548 C85.46531167409816 -4.996257035031076, 85.53235345583253 -4.652011655110603, 85.6923628019468 -3.8303974808011105 M85.39826989236377 -5.340502414951548 C85.4793634659652 -4.924104053641001, 85.56045703956664 -4.507705692330455, 85.6923628019468 -3.8303974808011105 M85.6923628019468 -3.8303974808011105 C85.74338519020426 -3.4346779129864355, 85.79440757846172 -3.0389583451717606, 85.88909871078076 -2.3045526217843664 M85.6923628019468 -3.8303974808011105 C85.74271822090083 -3.439850795195833, 85.79307363985487 -3.0493041095905555, 85.88909871078076 -2.3045526217843664 M85.88909871078076 -2.3045526217843664 C85.91074702948282 -1.9673625837915092, 85.93239534818487 -1.630172545798652, 85.98766918881651 -0.769237861719724 M85.88909871078076 -2.3045526217843664 C85.91636615756255 -1.8798401282711776, 85.94363360434433 -1.455127634757989, 85.98766918881651 -0.769237861719724 M85.98766918881651 -0.769237861719724 C85.98766918881651 -0.3203425317451008, 85.98766918881651 0.12855279822952237, 85.98766918881651 0.7692378617197182 M85.98766918881651 -0.769237861719724 C85.98766918881651 -0.41721347135594866, 85.98766918881651 -0.06518908099217335, 85.98766918881651 0.7692378617197182 M85.98766918881651 0.7692378617197182 C85.96084400071572 1.187061819291619, 85.93401881261494 1.6048857768635194, 85.88909871078076 2.3045526217843504 M85.98766918881651 0.7692378617197182 C85.96705906409517 1.090257190447849, 85.94644893937382 1.41127651917598, 85.88909871078076 2.3045526217843504 M85.88909871078076 2.3045526217843504 C85.83760743112279 2.7039088187082894, 85.78611615146482 3.103265015632229, 85.6923628019468 3.8303974808010937 M85.88909871078076 2.3045526217843504 C85.83009608793576 2.762165313184394, 85.77109346509077 3.2197780045844375, 85.6923628019468 3.8303974808010937 M85.6923628019468 3.8303974808010937 C85.60024049174923 4.303426073608439, 85.50811818155168 4.776454666415785, 85.39826989236377 5.340502414951542 M85.6923628019468 3.8303974808010937 C85.58025300738093 4.406057581483346, 85.46814321281508 4.981717682165597, 85.39826989236377 5.340502414951542 M85.39826989236377 5.340502414951542 C85.26122065859316 5.863130540832525, 85.12417142482255 6.385758666713509, 85.00802847287986 6.828662079144769 M85.39826989236377 5.340502414951542 C85.2464643213641 5.91940285012392, 85.09465875036445 6.4983032852962985, 85.00802847287986 6.828662079144769 M85.00802847287986 6.828662079144769 C84.89741146952062 7.161822868836739, 84.78679446616138 7.494983658528709, 84.52324212919424 8.288761306111379 M85.00802847287986 6.828662079144769 C84.85998704364268 7.274539276808631, 84.71194561440548 7.7204164744724935, 84.52324212919424 8.288761306111379 M84.52324212919424 8.288761306111379 C84.32429864172022 8.780155566482893, 84.1253551542462 9.271549826854407, 83.9459029523795 9.714800234937451 M84.52324212919424 8.288761306111379 C84.37127119166908 8.664132459956717, 84.21930025414393 9.039503613802054, 83.9459029523795 9.714800234937451 M83.9459029523795 9.714800234937451 C83.696621465836 10.232438575514383, 83.44733997929251 10.750076916091317, 83.278383352952 11.100918965780041 M83.9459029523795 9.714800234937451 C83.73934167368306 10.143729149853966, 83.5327803949866 10.572658064770481, 83.278383352952 11.100918965780041 M83.278383352952 11.100918965780041 C83.12101894336776 11.38033540987126, 82.96365453378351 11.65975185396248, 82.52342631212831 12.4414216394526 M83.278383352952 11.100918965780041 C82.99559364371625 11.603040730091326, 82.71280393448049 12.10516249440261, 82.52342631212831 12.4414216394526 M82.52342631212831 12.4414216394526 C82.19403310133504 12.947458065692954, 81.86463989054177 13.45349449193331, 81.68413411032694 13.730799842932065 M82.52342631212831 12.4414216394526 C82.23569561402326 12.88345325825273, 81.9479649159182 13.325484877052862, 81.68413411032694 13.730799842932065 M81.68413411032694 13.730799842932065 C81.32847174688463 14.207355008436895, 80.97280938344231 14.683910173941724, 80.76395557923271 14.963755244609601 M81.68413411032694 13.730799842932065 C81.3183431751184 14.220926371871766, 80.95255223990986 14.711052900811467, 80.76395557923271 14.963755244609601 M80.76395557923271 14.963755244609601 C80.45056699484425 15.33187930814791, 80.13717841045579 15.70000337168622, 79.76667192980759 16.135221366271594 M80.76395557923271 14.963755244609601 C80.5604698697147 15.202781137674355, 80.35698416019666 15.44180703073911, 79.76667192980759 16.135221366271594 M79.76667192980759 16.135221366271594 C79.43080213460057 16.482034505245853, 79.09493233939357 16.82884764422011, 78.69638121448368 17.240384402345455 M79.76667192980759 16.135221366271594 C79.48026665021064 16.4309583317662, 79.19386137061369 16.726695297260804, 78.69638121448368 17.240384402345455 M78.69638121448368 17.240384402345455 C78.42979487145595 17.482491065595116, 78.16320852842823 17.724597728844778, 77.55748148738694 18.274703000859212 M78.69638121448368 17.240384402345455 C78.37664773537655 17.530757888386272, 78.05691425626942 17.821131374427086, 77.55748148738694 18.274703000859212 M77.55748148738694 18.274703000859212 C77.22147762650066 18.542657138477768, 76.88547376561438 18.810611276096324, 76.35465273178919 19.233926924830957 M77.55748148738694 18.274703000859212 C77.09128144294286 18.646485130199164, 76.62508139849876 19.018267259539115, 76.35465273178919 19.233926924830957 M76.35465273178919 19.233926924830957 C76.01267317394117 19.472477060329275, 75.67069361609315 19.711027195827597, 75.09283762905318 20.11411451740417 M76.35465273178919 19.233926924830957 C75.85558548152414 19.582054634342786, 75.3565182312591 19.930182343854618, 75.09283762905318 20.11411451740417 M75.09283762905318 20.11411451740417 C74.66254156551909 20.374962519818887, 74.23224550198499 20.6358105222336, 73.7772212480945 20.911648898961346 M75.09283762905318 20.11411451740417 C74.69300268371218 20.35649681096083, 74.29316773837118 20.598879104517493, 73.7772212480945 20.911648898961346 M73.7772212480945 20.911648898961346 C73.29750629829302 21.161915881000688, 72.81779134849154 21.412182863040034, 72.4132097388214 21.623252829658057 M73.7772212480945 20.911648898961346 C73.37193707671463 21.123085391573323, 72.96665290533477 21.3345218841853, 72.4132097388214 21.623252829658057 M72.4132097388214 21.623252829658057 C72.07588246113264 21.77257760903271, 71.73855518344388 21.921902388407364, 71.006408117105 22.24600217630452 M72.4132097388214 21.623252829658057 C72.00552496537979 21.80372278532154, 71.59784019193818 21.98419274098502, 71.006408117105 22.24600217630452 M71.006408117105 22.24600217630452 C70.4748198242439 22.441631582025714, 69.94323153138279 22.63726098774691, 69.56259723256692 22.777337928256042 M71.006408117105 22.24600217630452 C70.53616605166184 22.4190556032576, 70.06592398621869 22.592109030210683, 69.56259723256692 22.777337928256042 M69.56259723256692 22.777337928256042 C69.26466508080061 22.865762627022505, 68.96673292903431 22.954187325788965, 68.0877100138282 23.2150767129367 M69.56259723256692 22.777337928256042 C69.0741989833276 22.922291964975543, 68.5858007340883 23.067246001695047, 68.0877100138282 23.2150767129367 M68.0877100138282 23.2150767129367 C67.72767848562192 23.297251559824495, 67.36764695741566 23.37942640671229, 66.58780708883295 23.557419767785568 M68.0877100138282 23.2150767129367 C67.5344997049641 23.34134335590029, 66.98128939610002 23.467609998863878, 66.58780708883295 23.557419767785568 M66.58780708883295 23.557419767785568 C66.11745619908955 23.633462452013653, 65.64710530934613 23.70950513624174, 65.06905188042816 23.802960331757905 M66.58780708883295 23.557419767785568 C66.03365697057855 23.647010461406587, 65.47950685232415 23.736601155027607, 65.06905188042816 23.802960331757905 M65.06905188042816 23.802960331757905 C64.75683077356182 23.833079926436483, 64.44460966669547 23.86319952111506, 63.53768527953711 23.950689426008072 M65.06905188042816 23.802960331757905 C64.59666740301114 23.848530694168872, 64.1242829255941 23.89410105657984, 63.53768527953711 23.950689426008072 M63.53768527953711 23.950689426008072 C62.945382338171854 23.96968342848992, 62.35307939680659 23.988677430971766, 62.00000000000001 24 M63.53768527953711 23.950689426008072 C63.10506414933702 23.964562743607644, 62.672443019136935 23.978436061207212, 62.00000000000001 24 M62.00000000000001 24 C62.00000000000001 24, 62.00000000000001 24, 62 24 M62.00000000000001 24 C62.00000000000001 24, 62 24, 62 24 M62 24 C24.787778615828564 24, -12.424442768342871 24, -61.99999999999999 24 M62 24 C18.75120619133839 24, -24.49758761732322 24, -61.99999999999999 24 M-61.99999999999999 24 C-62.565005821090736 23.981881363034734, -63.13001164218147 23.96376272606947, -63.5376852795371 23.950689426008072 M-61.99999999999999 24 C-62.60725661022822 23.980526462463267, -63.214513220456446 23.961052924926534, -63.5376852795371 23.950689426008072 M-63.5376852795371 23.950689426008072 C-64.00627961945197 23.90548469360363, -64.47487395936685 23.86027996119919, -65.06905188042815 23.802960331757905 M-63.5376852795371 23.950689426008072 C-63.870141642567305 23.91861776050382, -64.20259800559751 23.886546094999574, -65.06905188042815 23.802960331757905 M-65.06905188042815 23.802960331757905 C-65.66036058234229 23.7073621264999, -66.25166928425644 23.611763921241888, -66.58780708883293 23.557419767785568 M-65.06905188042815 23.802960331757905 C-65.5987343392314 23.717325379567413, -66.12841679803464 23.631690427376924, -66.58780708883293 23.557419767785568 M-66.58780708883293 23.557419767785568 C-66.91695448842188 23.482294021716903, -67.24610188801084 23.40716827564824, -68.08771001382817 23.215076712936707 M-66.58780708883293 23.557419767785568 C-67.06982487897265 23.447402352646215, -67.55184266911238 23.337384937506865, -68.08771001382817 23.215076712936707 M-68.08771001382817 23.215076712936707 C-68.50561286938272 23.09104533902497, -68.92351572493727 22.96701396511323, -69.56259723256689 22.777337928256053 M-68.08771001382817 23.215076712936707 C-68.67757605021403 23.040007569607393, -69.2674420865999 22.86493842627808, -69.56259723256689 22.777337928256053 M-69.56259723256689 22.777337928256053 C-69.9351993465519 22.640216906013386, -70.30780146053691 22.503095883770715, -71.00640811710498 22.246002176304522 M-69.56259723256689 22.777337928256053 C-70.04330375817109 22.600433483231292, -70.52401028377531 22.42352903820653, -71.00640811710498 22.246002176304522 M-71.00640811710498 22.246002176304522 C-71.53983483805982 22.00986999047928, -72.07326155901467 21.77373780465404, -72.4132097388214 21.623252829658064 M-71.00640811710498 22.246002176304522 C-71.43094119339442 22.05807397675746, -71.85547426968385 21.870145777210393, -72.4132097388214 21.623252829658064 M-72.4132097388214 21.623252829658064 C-72.74269871612461 21.45135864124674, -73.07218769342782 21.279464452835416, -73.77722124809449 20.911648898961353 M-72.4132097388214 21.623252829658064 C-72.79195487428898 21.42566173508246, -73.17070000975657 21.228070640506854, -73.77722124809449 20.911648898961353 M-73.77722124809449 20.911648898961353 C-74.29831268537411 20.595760207409253, -74.81940412265374 20.279871515857153, -75.09283762905315 20.114114517404186 M-73.77722124809449 20.911648898961353 C-74.19441196862562 20.658745432490576, -74.61160268915674 20.405841966019803, -75.09283762905315 20.114114517404186 M-75.09283762905315 20.114114517404186 C-75.3787314320518 19.914687376575596, -75.66462523505044 19.715260235747007, -76.35465273178917 19.23392692483096 M-75.09283762905315 20.114114517404186 C-75.45680024088186 19.860229955080005, -75.82076285271057 19.606345392755824, -76.35465273178917 19.23392692483096 M-76.35465273178917 19.23392692483096 C-76.69347758529575 18.963723120667492, -77.03230243880232 18.693519316504023, -77.55748148738692 18.274703000859233 M-76.35465273178917 19.23392692483096 C-76.66085843108769 18.989736028116276, -76.96706413038619 18.74554513140159, -77.55748148738692 18.274703000859233 M-77.55748148738692 18.274703000859233 C-77.85903129785221 18.000843441565422, -78.16058110831752 17.726983882271615, -78.69638121448367 17.240384402345473 M-77.55748148738692 18.274703000859233 C-77.92888287209476 17.93740609000972, -78.30028425680261 17.600109179160206, -78.69638121448367 17.240384402345473 M-78.69638121448367 17.240384402345473 C-79.07701465731347 16.847349122036867, -79.45764810014326 16.45431384172826, -79.76667192980757 16.1352213662716 M-78.69638121448367 17.240384402345473 C-79.11087647020186 16.81238402012306, -79.52537172592005 16.384383637900644, -79.76667192980757 16.1352213662716 M-79.76667192980757 16.1352213662716 C-80.14063676866498 15.695940987347557, -80.51460160752237 15.256660608423513, -80.76395557923271 14.963755244609608 M-79.76667192980757 16.1352213662716 C-80.0625411237502 15.787676575632544, -80.3584103176928 15.440131784993486, -80.76395557923271 14.963755244609608 M-80.76395557923271 14.963755244609608 C-81.00792012849352 14.636864974227786, -81.25188467775433 14.309974703845965, -81.68413411032694 13.730799842932079 M-80.76395557923271 14.963755244609608 C-80.96132704856231 14.699295456618712, -81.1586985178919 14.434835668627814, -81.68413411032694 13.730799842932079 M-81.68413411032694 13.730799842932079 C-81.92027663671576 13.368021509251832, -82.15641916310459 13.005243175571586, -82.5234263121283 12.441421639452614 M-81.68413411032694 13.730799842932079 C-82.01057317143315 13.229301783911298, -82.33701223253937 12.727803724890517, -82.5234263121283 12.441421639452614 M-82.5234263121283 12.441421639452614 C-82.70517953312621 12.11870039106147, -82.88693275412413 11.795979142670328, -83.278383352952 11.10091896578005 M-82.5234263121283 12.441421639452614 C-82.77484006290919 11.995011066538245, -83.0262538136901 11.548600493623876, -83.278383352952 11.10091896578005 M-83.278383352952 11.10091896578005 C-83.44511322904813 10.75470081061858, -83.61184310514426 10.408482655457108, -83.9459029523795 9.71480023493746 M-83.278383352952 11.10091896578005 C-83.50000275848537 10.640721528294396, -83.72162216401871 10.180524090808744, -83.9459029523795 9.71480023493746 M-83.9459029523795 9.71480023493746 C-84.14558230237704 9.221588379905942, -84.34526165237457 8.728376524874424, -84.52324212919424 8.288761306111397 M-83.9459029523795 9.71480023493746 C-84.0914451886827 9.35530809740085, -84.2369874249859 8.995815959864238, -84.52324212919424 8.288761306111397 M-84.52324212919424 8.288761306111397 C-84.63813331769612 7.942727351768711, -84.753024506198 7.596693397426024, -85.00802847287986 6.828662079144779 M-84.52324212919424 8.288761306111397 C-84.66271596016419 7.868688349367067, -84.80218979113413 7.448615392622738, -85.00802847287986 6.828662079144779 M-85.00802847287986 6.828662079144779 C-85.0970192172842 6.489301801898431, -85.18600996168854 6.149941524652084, -85.39826989236377 5.340502414951551 M-85.00802847287986 6.828662079144779 C-85.14391391445548 6.310471997294013, -85.2797993560311 5.792281915443247, -85.39826989236377 5.340502414951551 M-85.39826989236377 5.340502414951551 C-85.51127641763044 4.760237791644752, -85.62428294289711 4.179973168337952, -85.6923628019468 3.830397480801113 M-85.39826989236377 5.340502414951551 C-85.50991563485225 4.767225123609203, -85.62156137734074 4.193947832266854, -85.6923628019468 3.830397480801113 M-85.6923628019468 3.830397480801113 C-85.74265761508923 3.4403208419026954, -85.79295242823164 3.050244203004277, -85.88909871078076 2.30455262178438 M-85.6923628019468 3.830397480801113 C-85.76330572307795 3.28017819377226, -85.8342486442091 2.729958906743407, -85.88909871078076 2.30455262178438 M-85.88909871078076 2.30455262178438 C-85.91132389837762 1.9583773851147401, -85.93354908597448 1.6122021484451, -85.98766918881651 0.769237861719727 M-85.88909871078076 2.30455262178438 C-85.91410483621041 1.9150620336364457, -85.93911096164005 1.5255714454885112, -85.98766918881651 0.769237861719727 M-85.98766918881651 0.769237861719727 C-85.98766918881651 0.15764552009533972, -85.98766918881651 -0.45394682152904753, -85.98766918881651 -0.7692378617197153 M-85.98766918881651 0.769237861719727 C-85.98766918881651 0.38181558151180184, -85.98766918881651 -0.005606698696123291, -85.98766918881651 -0.7692378617197153 M-85.98766918881651 -0.7692378617197153 C-85.96437314795084 -1.1320925024283395, -85.94107710708516 -1.4949471431369634, -85.88909871078076 -2.3045526217843473 M-85.98766918881651 -0.7692378617197153 C-85.95244555258519 -1.3178744280299026, -85.91722191635388 -1.86651099434009, -85.88909871078076 -2.3045526217843473 M-85.88909871078076 -2.3045526217843473 C-85.82614169891617 -2.792834773537911, -85.76318468705158 -3.2811169252914745, -85.6923628019468 -3.8303974808011017 M-85.88909871078076 -2.3045526217843473 C-85.83152174374109 -2.751108208285813, -85.77394477670143 -3.197663794787279, -85.6923628019468 -3.8303974808011017 M-85.6923628019468 -3.8303974808011017 C-85.61980017456035 -4.202991236313778, -85.5472375471739 -4.575584991826456, -85.39826989236377 -5.3405024149515405 M-85.6923628019468 -3.8303974808011017 C-85.59227003976017 -4.344352660016711, -85.49217727757353 -4.858307839232321, -85.39826989236377 -5.3405024149515405 M-85.39826989236377 -5.3405024149515405 C-85.30662342476731 -5.689990115727174, -85.21497695717083 -6.039477816502808, -85.00802847287986 -6.828662079144767 M-85.39826989236377 -5.3405024149515405 C-85.3120972077812 -5.66911620874262, -85.22592452319863 -5.997730002533699, -85.00802847287986 -6.828662079144767 M-85.00802847287986 -6.828662079144767 C-84.82901561903805 -7.367820273091369, -84.65000276519625 -7.906978467037971, -84.52324212919426 -8.288761306111367 M-85.00802847287986 -6.828662079144767 C-84.86896628442759 -7.24749523421222, -84.7299040959753 -7.666328389279674, -84.52324212919426 -8.288761306111367 M-84.52324212919426 -8.288761306111367 C-84.36294392066688 -8.68470098032901, -84.2026457121395 -9.080640654546654, -83.9459029523795 -9.714800234937448 M-84.52324212919426 -8.288761306111367 C-84.37001738739029 -8.66722938076601, -84.21679264558632 -9.045697455420653, -83.9459029523795 -9.714800234937448 M-83.9459029523795 -9.714800234937448 C-83.7923910546195 -10.033570975264505, -83.6388791568595 -10.35234171559156, -83.278383352952 -11.10091896578004 M-83.9459029523795 -9.714800234937448 C-83.74779812197964 -10.126169154027084, -83.54969329157979 -10.53753807311672, -83.278383352952 -11.10091896578004 M-83.278383352952 -11.10091896578004 C-82.98752488465868 -11.617367628848472, -82.69666641636537 -12.133816291916904, -82.52342631212831 -12.441421639452606 M-83.278383352952 -11.10091896578004 C-83.00190344038307 -11.591837047173167, -82.72542352781416 -12.082755128566294, -82.52342631212831 -12.441421639452606 M-82.52342631212831 -12.441421639452606 C-82.30720335474916 -12.773598165980742, -82.09098039737003 -13.105774692508879, -81.68413411032694 -13.730799842932072 M-82.52342631212831 -12.441421639452606 C-82.21052440263145 -12.922122998367207, -81.8976224931346 -13.402824357281808, -81.68413411032694 -13.730799842932072 M-81.68413411032694 -13.730799842932072 C-81.44636432049235 -14.04938970003696, -81.20859453065775 -14.367979557141846, -80.76395557923271 -14.963755244609601 M-81.68413411032694 -13.730799842932072 C-81.46173343316276 -14.028796489213565, -81.23933275599859 -14.326793135495057, -80.76395557923271 -14.963755244609601 M-80.76395557923271 -14.963755244609601 C-80.43663659888128 -15.348242743908008, -80.10931761852984 -15.732730243206413, -79.76667192980759 -16.135221366271594 M-80.76395557923271 -14.963755244609601 C-80.39744432633219 -15.394280217347644, -80.03093307343167 -15.824805190085687, -79.76667192980759 -16.135221366271594 M-79.76667192980759 -16.135221366271594 C-79.40325665129834 -16.51047747828165, -79.0398413727891 -16.885733590291704, -78.6963812144837 -17.240384402345448 M-79.76667192980759 -16.135221366271594 C-79.52818486312951 -16.38147884276902, -79.28969779645143 -16.627736319266447, -78.6963812144837 -17.240384402345448 M-78.6963812144837 -17.240384402345448 C-78.45530659737463 -17.459321991119065, -78.21423198026555 -17.678259579892686, -77.55748148738694 -18.274703000859212 M-78.6963812144837 -17.240384402345448 C-78.44207710401952 -17.47133666695096, -78.18777299355534 -17.702288931556478, -77.55748148738694 -18.274703000859212 M-77.55748148738694 -18.274703000859212 C-77.23327695362221 -18.53324748909161, -76.90907241985748 -18.79179197732401, -76.35465273178919 -19.233926924830953 M-77.55748148738694 -18.274703000859212 C-77.13791694318942 -18.609294559775307, -76.71835239899191 -18.9438861186914, -76.35465273178919 -19.233926924830953 M-76.35465273178919 -19.233926924830953 C-76.0642094465575 -19.436527587521407, -75.77376616132581 -19.63912825021186, -75.09283762905318 -20.11411451740417 M-76.35465273178919 -19.233926924830953 C-76.08634632341496 -19.421085860515593, -75.81803991504074 -19.608244796200232, -75.09283762905318 -20.11411451740417 M-75.09283762905318 -20.11411451740417 C-74.5956859491302 -20.41549078736104, -74.09853426920722 -20.716867057317913, -73.7772212480945 -20.911648898961342 M-75.09283762905318 -20.11411451740417 C-74.64659371487116 -20.38463020060163, -74.20034980068914 -20.655145883799097, -73.7772212480945 -20.911648898961342 M-73.7772212480945 -20.911648898961342 C-73.30256087439089 -21.159278911888034, -72.82790050068729 -21.40690892481473, -72.4132097388214 -21.623252829658057 M-73.7772212480945 -20.911648898961342 C-73.38410660580296 -21.1167365560429, -72.99099196351142 -21.32182421312445, -72.4132097388214 -21.623252829658057 M-72.4132097388214 -21.623252829658057 C-71.86355423715914 -21.8665690152928, -71.31389873549688 -22.10988520092754, -71.006408117105 -22.246002176304515 M-72.4132097388214 -21.623252829658057 C-71.93307697689038 -21.835793360732577, -71.45294421495937 -22.048333891807093, -71.006408117105 -22.246002176304515 M-71.006408117105 -22.246002176304515 C-70.59162071415079 -22.398647774844385, -70.17683331119657 -22.551293373384254, -69.56259723256692 -22.777337928256042 M-71.006408117105 -22.246002176304515 C-70.61761303456666 -22.389082360660964, -70.22881795202834 -22.532162545017417, -69.56259723256692 -22.777337928256042 M-69.56259723256692 -22.777337928256042 C-69.20120726229923 -22.884596574456825, -68.83981729203155 -22.99185522065761, -68.0877100138282 -23.2150767129367 M-69.56259723256692 -22.777337928256042 C-69.15676450519415 -22.89778695148082, -68.75093177782139 -23.0182359747056, -68.0877100138282 -23.2150767129367 M-68.0877100138282 -23.2150767129367 C-67.73050225248895 -23.296607053463898, -67.37329449114968 -23.3781373939911, -66.58780708883295 -23.557419767785564 M-68.0877100138282 -23.2150767129367 C-67.59403233827817 -23.327755420833093, -67.10035466272812 -23.440434128729486, -66.58780708883295 -23.557419767785564 M-66.58780708883295 -23.557419767785564 C-65.9943964050345 -23.653357805173517, -65.40098572123604 -23.749295842561466, -65.06905188042816 -23.802960331757905 M-66.58780708883295 -23.557419767785564 C-66.25169397906168 -23.611759928777285, -65.91558086929044 -23.666100089769007, -65.06905188042816 -23.802960331757905 M-65.06905188042816 -23.802960331757905 C-64.7270639424764 -23.83595149683144, -64.38507600452465 -23.868942661904978, -63.53768527953711 -23.950689426008072 M-65.06905188042816 -23.802960331757905 C-64.56785034254138 -23.851310641334805, -64.06664880465458 -23.899660950911702, -63.53768527953711 -23.950689426008072 M-63.53768527953711 -23.950689426008072 C-63.105564386346316 -23.964546701980407, -62.673443493155524 -23.97840397795274, -62.00000000000001 -24 M-63.53768527953711 -23.950689426008072 C-63.095683009575026 -23.96486357850053, -62.653680739612945 -23.979037730992985, -62.00000000000001 -24 M-62.00000000000001 -24 C-62.00000000000001 -24, -62 -24, -62 -24 M-62.00000000000001 -24 C-62.00000000000001 -24, -62.00000000000001 -24, -62 -24" stroke="#2E7D32" stroke-width="2" fill="none" stroke-dasharray="0 0" style="fill:#4CAF50 !important;stroke:#2E7D32 !important;stroke-width:2px !important;rx:20px !important;ry:20px !important"></path></g><g class="label" style="color:white !important;font-weight:bold !important" transform="translate(-60, -12)"><rect></rect><foreignObject width="120" height="24"><div style="color: white !important; font-weight: bold !important; display: table; white-space: nowrap; line-height: 1.5; max-width: 120px; text-align: center; width: 120px;" xmlns="http://www.w3.org/1999/xhtml"><span style="color:white !important;font-weight:bold !important" class="nodeLabel"><p>Bắt đầu</p></span></div></foreignObject></g></g><g class="node default idleState" id="mermaid-1790849807026-flowchart-IDLE-1" data-look="neo" transform="translate(337.703125, 124)"><rect class="basic label-container" style="fill:#2196F3 !important;stroke:#1565C0 !important;stroke-width:2px !important;rx:8px !important;ry:8px !important" x="-76" y="-24" width="152" height="48"></rect><g class="label" style="color:white !important;font-weight:bold !important" transform="translate(-60, -12)"><rect></rect><foreignObject width="120" height="24"><div style="color: white !important; font-weight: bold !important; display: table; white-space: nowrap; line-height: 1.5; max-width: 120px; text-align: center; width: 120px;" xmlns="http://www.w3.org/1999/xhtml"><span style="color:white !important;font-weight:bold !important" class="nodeLabel"><p>Trạng thái IDLE</p></span></div></foreignObject></g></g><g class="node default activeState" id="mermaid-1790849807026-flowchart-ARB_REFRESH-3" data-look="neo" transform="translate(122.734375, 340)"><rect class="basic label-container" style="fill:#FF9800 !important;stroke:#E65100 !important;stroke-width:2px !important;rx:8px !important;ry:8px !important" x="-76" y="-24" width="152" height="48"></rect><g class="label" style="color:white !important;font-weight:bold !important" transform="translate(-60, -12)"><rect></rect><foreignObject width="120" height="24"><div style="color: white !important; font-weight: bold !important; display: table; white-space: nowrap; line-height: 1.5; max-width: 120px; text-align: center; width: 120px;" xmlns="http://www.w3.org/1999/xhtml"><span style="color:white !important;font-weight:bold !important" class="nodeLabel"><p>ARB_REFRESH</p></span></div></foreignObject></g></g><g class="node default activeState" id="mermaid-1790849807026-flowchart-ARB_READ-7" data-look="neo" transform="translate(337.703125, 340)"><rect class="basic label-container" style="fill:#FF9800 !important;stroke:#E65100 !important;stroke-width:2px !important;rx:8px !important;ry:8px !important" x="-76" y="-24" width="152" height="48"></rect><g class="label" style="color:white !important;font-weight:bold !important" transform="translate(-60, -12)"><rect></rect><foreignObject width="120" height="24"><div style="color: white !important; font-weight: bold !important; display: table; white-space: nowrap; line-height: 1.5; max-width: 120px; text-align: center; width: 120px;" xmlns="http://www.w3.org/1999/xhtml"><span style="color:white !important;font-weight:bold !important" class="nodeLabel"><p>ARB_READ</p></span></div></foreignObject></g></g><g class="node default activeState" id="mermaid-1790849807026-flowchart-ARB_WRITE-11" data-look="neo" transform="translate(640.984375, 340)"><rect class="basic label-container" style="fill:#FF9800 !important;stroke:#E65100 !important;stroke-width:2px !important;rx:8px !important;ry:8px !important" x="-76" y="-24" width="152" height="48"></rect><g class="label" style="color:white !important;font-weight:bold !important" transform="translate(-60, -12)"><rect></rect><foreignObject width="120" height="24"><div style="color: white !important; font-weight: bold !important; display: table; white-space: nowrap; line-height: 1.5; max-width: 120px; text-align: center; width: 120px;" xmlns="http://www.w3.org/1999/xhtml"><span style="color:white !important;font-weight:bold !important" class="nodeLabel"><p>ARB_WRITE</p></span></div></foreignObject></g></g></g></g><marker id="mermaid-1790849807026_flowchart-v2-pointEnd-margin__38bdf8" class="marker flowchart-v2" viewBox="0 0 11.5 14" refX="11.5" refY="7" markerUnits="userSpaceOnUse" markerWidth="10.5" markerHeight="14" orient="auto"><path d="M 0 0 L 11.5 7 L 0 14 z" class="arrowMarkerPath" style="stroke-width: 0; stroke-dasharray: 1, 0;" stroke="#38bdf8" fill="#38bdf8"></path></marker><marker id="mermaid-1790849807026_flowchart-v2-pointEnd-margin__f97316" class="marker flowchart-v2" viewBox="0 0 11.5 14" refX="11.5" refY="7" markerUnits="userSpaceOnUse" markerWidth="10.5" markerHeight="14" orient="auto"><path d="M 0 0 L 11.5 7 L 0 14 z" class="arrowMarkerPath" style="stroke-width: 0; stroke-dasharray: 1, 0;" stroke="#f97316" fill="#f97316"></path></marker></g><defs><filter id="mermaid-1790849807026-drop-shadow" height="130%" width="130%"><feDropShadow dx="4" dy="4" stdDeviation="0" flood-opacity="0.06" flood-color="#FFFFFF"></feDropShadow></filter></defs><defs><filter id="mermaid-1790849807026-drop-shadow-small" height="150%" width="150%"><feDropShadow dx="2" dy="2" stdDeviation="0" flood-opacity="0.06" flood-color="#FFFFFF"></feDropShadow></filter></defs><linearGradient id="mermaid-1790849807026-gradient" gradientUnits="objectBoundingBox" x1="0%" y1="0%" x2="100%" y2="0%"><stop offset="0%" stop-color="#cccccc" stop-opacity="1"></stop><stop offset="100%" stop-color="hsl(180, 0%, 18.3529411765%)" stop-opacity="1"></stop></linearGradient></svg>